<?xml version="1.0" encoding="utf-8"?>
<!-- Generator: Adobe Illustrator 21.1.0, SVG Export Plug-In . SVG Version: 6.00 Build 0)  -->
<svg version="1.1" id="Plus" xmlns="http://www.w3.org/2000/svg" xmlns:xlink="http://www.w3.org/1999/xlink" x="0px" y="0px"
	 viewBox="0 0 24 24" style="enable-background:new 0 0 24 24;" xml:space="preserve">
<style type="text/css">
	.st0{fill:#FFDB00;}
	.st1{fill:#111111;}
</style>
<g>
	<path class="st0" d="M12,0C5.4,0,0,5.4,0,12s5.4,12,12,12s12-5.4,12-12S18.6,0,12,0z"/>
	<circle class="st1" cx="8.3" cy="9.3" r="1.3"/>
	<circle class="st1" cx="15.7" cy="9.3" r="1.3"/>
	<path class="st1" d="M12,18.6c2.5,0,4.9-1.3,6.3-3.4l-1.1-0.7c-1.3,2-3.6,3-5.9,2.8c-1.8-0.2-3.5-1.2-4.5-2.8l-1.1,0.7
		c1.2,1.9,3.2,3.1,5.4,3.4C11.4,18.6,11.7,18.6,12,18.6z"/>
</g>
</svg>
