<?xml version="1.0" encoding="utf-8"?>
<!-- Generator: Adobe Illustrator 21.1.0, SVG Export Plug-In . SVG Version: 6.00 Build 0)  -->
<svg version="1.1" id="Plus" xmlns="http://www.w3.org/2000/svg" xmlns:xlink="http://www.w3.org/1999/xlink" x="0px" y="0px"
	 viewBox="0 0 24 24" style="enable-background:new 0 0 24 24;" xml:space="preserve">
<style type="text/css">
	.st0{fill:#EE8686;}
	.st1{fill:#111111;}
</style>
<g>
	<path class="st0" d="M12,0C5.4,0,0,5.4,0,12s5.4,12,12,12s12-5.4,12-12S18.6,0,12,0z"/>
	<circle class="st1" cx="8" cy="9.3" r="1.3"/>
	<circle class="st1" cx="16" cy="9.3" r="1.3"/>
	<path class="st1" d="M17.4,16.4c0.1,0.2,0.2,0.4,0.3,0.5l1.2-0.5c-0.1-0.2-0.2-0.4-0.3-0.7c-1.4-2.4-4.1-3.9-6.9-3.8
		c-2.8,0.1-5.3,1.9-6.4,4.5L6.4,17c0.9-2.1,3-3.6,5.3-3.7C14,13.2,16.2,14.4,17.4,16.4z"/>
	<rect x="8.5" y="4.9" transform="matrix(0.5859 -0.8104 0.8104 0.5859 -1.1887 9.9985)" class="st1" width="1.3" height="2.6"/>
	<rect x="13.5" y="5.5" transform="matrix(0.8104 -0.5859 0.5859 0.8104 -0.8022 9.8458)" class="st1" width="2.6" height="1.3"/>
</g>
</svg>
