<?xml version="1.0" encoding="utf-8"?>
<!-- Generator: Adobe Illustrator 21.1.0, SVG Export Plug-In . SVG Version: 6.00 Build 0)  -->
<svg version="1.1" id="Plus" xmlns="http://www.w3.org/2000/svg" xmlns:xlink="http://www.w3.org/1999/xlink" x="0px" y="0px"
	 viewBox="0 0 24 24" style="enable-background:new 0 0 24 24;" xml:space="preserve">
<style type="text/css">
	.st0{fill:#666666;}
</style>
<g>
	<path class="st0" d="M8.3,10.6c0.4,0,0.7-0.1,0.9-0.4C9.4,10,9.6,9.7,9.6,9.3C9.6,8.6,9,8,8.3,8C7.6,8,7,8.6,7,9.3
		c0,0.2,0,0.3,0.1,0.5C7.3,10.2,7.7,10.6,8.3,10.6z"/>
	<path class="st0" d="M16.9,9.8C17,9.6,17,9.5,17,9.3C17,8.6,16.4,8,15.7,8c-0.7,0-1.3,0.6-1.3,1.3c0,0.4,0.1,0.7,0.4,0.9
		c0.2,0.2,0.6,0.4,0.9,0.4C16.2,10.6,16.7,10.2,16.9,9.8z"/>
	<rect x="9" y="16" class="st0" width="6" height="1.3"/>
	<path class="st0" d="M12,0C5.4,0,0,5.4,0,12s5.4,12,12,12s12-5.4,12-12S18.6,0,12,0z M12,22.7c-2.9,0-5.6-1.2-7.5-3.1
		C3.7,18.8,3,17.9,2.5,17c-0.8-1.5-1.2-3.2-1.2-5C1.3,6.1,6.1,1.3,12,1.3c2.8,0,5.4,1.1,7.3,2.8c1,0.9,1.8,2,2.4,3.2
		c0.7,1.4,1,3,1,4.6C22.7,17.9,17.9,22.7,12,22.7z"/>
</g>
</svg>
