<?xml version="1.0" encoding="utf-8"?>
<!-- Generator: Adobe Illustrator 21.1.0, SVG Export Plug-In . SVG Version: 6.00 Build 0)  -->
<svg version="1.1" id="Plus" xmlns="http://www.w3.org/2000/svg" xmlns:xlink="http://www.w3.org/1999/xlink" x="0px" y="0px"
	 viewBox="0 0 24 24" style="enable-background:new 0 0 24 24;" xml:space="preserve">
<style type="text/css">
	.st0{fill:#666666;}
</style>
<g>
	<path class="st0" d="M12,0C5.4,0,0,5.4,0,12s5.4,12,12,12s12-5.4,12-12S18.6,0,12,0z M12,22.7c-2.9,0-5.6-1.2-7.5-3.1
		C3.7,18.8,3,17.9,2.5,17c-0.8-1.5-1.2-3.2-1.2-5C1.3,6.1,6.1,1.3,12,1.3c2.8,0,5.4,1.1,7.3,2.8c1,0.9,1.8,2,2.4,3.2
		c0.7,1.4,1,3,1,4.6C22.7,17.9,17.9,22.7,12,22.7z"/>
	<path class="st0" d="M14.3,14.8c1-0.1,2.1,0.1,3,0.7l0.7-1.1c-1.2-0.7-2.5-1-3.9-0.8c-2.2,0.3-4,1.8-4.7,3.9l1.2,0.4
		C11.2,16.2,12.6,15,14.3,14.8z"/>
	<circle class="st0" cx="8" cy="9.3" r="1.3"/>
	<circle class="st0" cx="16" cy="9.3" r="1.3"/>
</g>
</svg>
