<?xml version="1.0" encoding="utf-8"?>
<!-- Generator: Adobe Illustrator 21.1.0, SVG Export Plug-In . SVG Version: 6.00 Build 0)  -->
<svg version="1.1" id="Plus" xmlns="http://www.w3.org/2000/svg" xmlns:xlink="http://www.w3.org/1999/xlink" x="0px" y="0px"
	 viewBox="0 0 24 24" style="enable-background:new 0 0 24 24;" xml:space="preserve">
<style type="text/css">
	.st0{fill:#FFDB00;}
	.st1{fill:#111111;}
</style>
<g>
	<path class="st0" d="M12,0C5.4,0,0,5.4,0,12s5.4,12,12,12s12-5.4,12-12S18.6,0,12,0z"/>
	<path class="st1" d="M8.3,10.6c0.4,0,0.7-0.1,0.9-0.4C9.4,10,9.6,9.7,9.6,9.3C9.6,8.6,9,8,8.3,8C7.6,8,7,8.6,7,9.3
		c0,0.2,0,0.3,0.1,0.5C7.3,10.2,7.7,10.6,8.3,10.6z"/>
	<path class="st1" d="M16.9,9.8C17,9.6,17,9.5,17,9.3C17,8.6,16.4,8,15.7,8c-0.7,0-1.3,0.6-1.3,1.3c0,0.4,0.1,0.7,0.4,0.9
		c0.2,0.2,0.6,0.4,0.9,0.4C16.2,10.6,16.7,10.2,16.9,9.8z"/>
	<rect x="9" y="16" class="st1" width="6" height="1.3"/>
</g>
</svg>
