<?xml version="1.0" encoding="utf-8"?>
<!-- Generator: Adobe Illustrator 22.1.0, SVG Export Plug-In . SVG Version: 6.00 Build 0)  -->
<svg version="1.1" id="Lager_1" xmlns="http://www.w3.org/2000/svg" xmlns:xlink="http://www.w3.org/1999/xlink" x="0px" y="0px"
	 width="32px" height="32px" viewBox="0 0 32 32" style="enable-background:new 0 0 32 32;" xml:space="preserve">
<style type="text/css">
	.st0{fill:#0058A3;}
	.st1{fill:#FFDB00;}
	.st2{fill:#CCC121;}
	.st3{fill:#99A741;}
	.st4{fill:#BFBA29;}
	.st5{fill:#DFCB14;}
	.st6{fill:#20688F;}
	.st7{fill:#9FAA3D;}
	.st8{fill:#70915C;}
</style>
<rect y="9" class="st0" width="32" height="13"/>
<polygon class="st1" points="30,14 30,13 29,13 29,12 26,12 26,11 22,11 22,10 10,10 10,11 6,11 6,12 3,12 3,13 2,13 2,14 1,14 
	1,15 1,16 1,17 2,17 2,18 3,18 3,19 6,19 6,20 10,20 10,21 22,21 22,20 26,20 26,19 29,19 29,18 30,18 30,17 31,17 31,16 31,15 
	31,14 "/>
<g>
	<polygon class="st0" points="21,14 18,14 18,15 20,15 20,16 18,16 18,17 21,17 21,18 16,18 16,13 21,13 	"/>
	<rect x="4" y="13" class="st0" width="2" height="5"/>
</g>
<polygon class="st0" points="14,15 14,14 15,14 15,13 12,13 12,14 11,14 11,15 10,15 10,13 8,13 8,18 10,18 10,16 11,16 11,17 
	12,17 12,18 15,18 15,17 14,17 14,16 13,16 13,15 "/>
<path class="st0" d="M28,16v-2h-1v-1h-3v1h-1v2h-1v1v1h2v-1h3v1h2v-1v-1H28z M25,16v-1h1v1H25z"/>
<rect x="14" y="14" class="st2" width="1" height="1"/>
<rect x="14" y="16" class="st2" width="1" height="1"/>
<rect x="6" y="15" class="st3" width="1" height="1"/>
<rect x="6" y="14" class="st3" width="1" height="1"/>
<rect x="6" y="13" class="st3" width="1" height="1"/>
<rect x="10" y="13" class="st3" width="1" height="1"/>
<rect x="10" y="17" class="st3" width="1" height="1"/>
<rect x="6" y="17" class="st3" width="1" height="1"/>
<rect x="6" y="16" class="st3" width="1" height="1"/>
<rect x="10" y="14" class="st3" width="1" height="1"/>
<rect x="10" y="16" class="st3" width="1" height="1"/>
<rect x="5" y="11" class="st2" width="1" height="1"/>
<rect x="5" y="19" class="st2" width="1" height="1"/>
<rect x="4" y="11" class="st3" width="1" height="1"/>
<rect x="4" y="19" class="st3" width="1" height="1"/>
<rect x="2" y="12" class="st2" width="1" height="1"/>
<rect x="2" y="18" class="st2" width="1" height="1"/>
<rect x="1" y="13" class="st4" width="1" height="1"/>
<rect x="1" y="14" class="st5" width="1" height="1"/>
<rect x="1" y="16" class="st5" width="1" height="1"/>
<rect x="1" y="17" class="st4" width="1" height="1"/>
<rect x="3" y="11" class="st0" width="1" height="1"/>
<rect x="3" y="19" class="st0" width="1" height="1"/>
<rect x="6" y="10" class="st0" width="1" height="1"/>
<rect x="6" y="20" class="st0" width="1" height="1"/>
<rect x="25" y="20" class="st0" width="1" height="1"/>
<rect x="26" y="11" class="st2" width="1" height="1"/>
<rect x="29" y="12" class="st2" width="1" height="1"/>
<rect x="30" y="13" class="st4" width="1" height="1"/>
<rect x="30" y="14" class="st5" width="1" height="1"/>
<rect x="30" y="17" class="st4" width="1" height="1"/>
<rect x="30" y="16" class="st5" width="1" height="1"/>
<rect x="26" y="17" class="st2" width="1" height="1"/>
<rect x="24" y="17" class="st2" width="1" height="1"/>
<rect x="22" y="15" class="st2" width="1" height="1"/>
<rect x="23" y="13" class="st2" width="1" height="1"/>
<rect x="18" y="14" class="st3" width="1" height="1"/>
<rect x="20" y="15" class="st2" width="1" height="1"/>
<rect x="18" y="16" class="st3" width="1" height="1"/>
<rect x="27" y="13" class="st2" width="1" height="1"/>
<rect x="29" y="17" class="st5" width="1" height="1"/>
<rect x="28" y="15" class="st3" width="1" height="1"/>
<rect x="29" y="18" class="st2" width="1" height="1"/>
<rect x="27" y="11" class="st3" width="1" height="1"/>
<rect x="26" y="19" class="st2" width="1" height="1"/>
<rect x="27" y="19" class="st3" width="1" height="1"/>
<rect x="28" y="11" class="st0" width="1" height="1"/>
<rect x="25" y="10" class="st0" width="1" height="1"/>
<rect x="26" y="20" class="st0" width="1" height="1"/>
<rect x="6" y="10" class="st6" width="1" height="1"/>
<rect x="7" y="10" class="st6" width="1" height="1"/>
<rect x="10" y="10" class="st5" width="1" height="1"/>
<rect x="9" y="10" class="st4" width="1" height="1"/>
<rect x="8" y="10" class="st7" width="1" height="1"/>
<rect x="7" y="10" class="st8" width="1" height="1"/>
<rect x="6" y="20" class="st6" width="1" height="1"/>
<rect x="10" y="20" class="st5" width="1" height="1"/>
<rect x="9" y="20" class="st4" width="1" height="1"/>
<rect x="8" y="20" class="st7" width="1" height="1"/>
<rect x="7" y="20" class="st8" width="1" height="1"/>
<rect x="25" y="10" class="st6" width="1" height="1"/>
<rect x="21" y="10" class="st5" width="1" height="1"/>
<rect x="22" y="10" class="st4" width="1" height="1"/>
<rect x="23" y="10" class="st7" width="1" height="1"/>
<rect x="24" y="10" class="st8" width="1" height="1"/>
<rect x="25" y="20" class="st6" width="1" height="1"/>
<rect x="21" y="20" class="st5" width="1" height="1"/>
<rect x="22" y="20" class="st4" width="1" height="1"/>
<rect x="23" y="20" class="st7" width="1" height="1"/>
<rect x="24" y="20" class="st8" width="1" height="1"/>
</svg>
